<?xml version="1.0" encoding="utf-8"?>
<!-- Generator: Adobe Illustrator 23.0.0, SVG Export Plug-In . SVG Version: 6.00 Build 0)  -->
<svg version="1.1" id="Layer_1" xmlns="http://www.w3.org/2000/svg" xmlns:xlink="http://www.w3.org/1999/xlink" x="0px" y="0px"
	 viewBox="0 0 32 32" style="enable-background:new 0 0 32 32;" xml:space="preserve">
<style type="text/css">
	.st0{fill:#F1625F;}
	.st1{fill:#FAA732;}
	.st2{fill:#F68C1F;}
	.st3{fill:#FFD47D;}
	.st4{fill:#EEEDEE;}
	.st5{fill:#111040;}
</style>
<path class="st0" d="M30.26,6.63c1.29-1.29,1.29-3.37,0-4.66c-1.29-1.29-3.37-1.29-4.66,0l-1.4,1.4l1.4,3.26l3.26,1.4L30.26,6.63z"
	/>
<polygon class="st1" points="26.53,7.56 22.34,5.23 3.56,24.01 5.89,28.2 "/>
<polygon class="st2" points="25.6,6.63 4.96,27.27 8.22,28.67 27,9.89 "/>
<polygon class="st3" points="3.56,24.01 2.16,28.2 2.16,30.07 4.02,30.07 8.22,28.67 "/>
<rect x="24.28" y="3.33" transform="matrix(0.7071 -0.7071 0.7071 0.7071 2.8116 20.0433)" class="st4" width="2.64" height="6.59"/>
<polygon class="st5" points="1.23,31 4.02,30.07 2.16,28.2 "/>
</svg>
